# xmcd CD database file
#
# Track frame offsets:
#	150
#	40202
#	64397
#	94132
#	129019
#	152371
#	184461
#	214032
#	246191
#	261217
#	292204
#
# Disc length: 4167 seconds
#
# Revision: 0
# Processed by: cddbd v1.5.2PL0 Copyright (c) Steve Scherf et al.
# Submitted via: CDex 1.51
#
DISCID=a210450b
DTITLE=Bob James - Urban Flamingo
DYEAR=2007
DGENRE=Jazz, Piano
TTITLE0=Choose Me
TTITLE1=Niles A Head
TTITLE2=Skidaway
TTITLE3=Urban Flamingo
TTITLE4=Lay Down With You
TTITLE5=Fresh Start
TTITLE6=Make It More Blue
TTITLE7=Bobary Coast
TTITLE8=Endless Time
TTITLE9=Wingapo
TTITLE10=Dream In The Mirror
EXTD=YEAR: 2007
EXTT0=
EXTT1=
EXTT2=
EXTT3=
EXTT4=
EXTT5=
EXTT6=
EXTT7=
EXTT8=
EXTT9=
EXTT10=
PLAYORDER=
